<?xml version="1.0" encoding="UTF-8"?>
<svg xmlns="http://www.w3.org/2000/svg" xmlns:xlink="http://www.w3.org/1999/xlink" width="11pt" height="11pt" viewBox="0 0 11 11" version="1.1">
<g id="surface1">
<path style=" stroke:none;fill-rule:nonzero;fill:rgb(100%,100%,100%);fill-opacity:1;" d="M 10.746094 5.574219 C 10.707031 5.128906 10.710938 4.53125 10.617188 4.105469 C 10.558594 3.84375 10.40625 3.757812 10.300781 3.621094 C 10.140625 3.429688 9.976562 3.207031 9.816406 3.019531 C 9.207031 2.28125 8.597656 1.546875 7.988281 0.8125 C 8.050781 0.898438 8.058594 1.597656 8.070312 1.734375 C 8.082031 1.871094 8.089844 2.574219 8.148438 2.65625 C 8.457031 3.042969 8.777344 3.386719 9.082031 3.769531 C 6.082031 3.886719 3.0625 4.007812 0.0625 4.15625 C 0.0976562 4.144531 0.167969 5.984375 0.222656 5.964844 C 2.949219 5.84375 5.695312 5.710938 8.445312 5.617188 C 8.101562 5.84375 7.746094 6.144531 7.433594 6.503906 C 7.386719 6.554688 7.464844 7.054688 7.519531 7.492188 C 7.546875 7.765625 7.570312 8.039062 7.59375 8.3125 C 7.644531 8.261719 7.710938 8.203125 7.761719 8.148438 C 7.761719 8.148438 7.777344 8.140625 7.773438 8.109375 C 8.304688 7.53125 8.894531 7.21875 9.484375 6.902344 C 9.8125 6.714844 10.144531 6.5625 10.464844 6.308594 C 10.652344 6.171875 10.738281 6.105469 10.753906 5.855469 C 10.753906 5.886719 10.773438 5.882812 10.777344 5.914062 C 10.769531 5.847656 10.765625 5.78125 10.757812 5.710938 C 10.753906 5.675781 10.75 5.609375 10.746094 5.574219 Z M 9.914062 4.777344 C 9.898438 4.785156 9.898438 4.785156 9.878906 4.789062 C 9.875 4.757812 9.875 4.722656 9.875 4.722656 C 9.875 4.722656 9.894531 4.75 9.914062 4.777344 Z M 9.914062 4.777344 "/>
</g>
</svg>
