<?xml version="1.0" encoding="UTF-8"?>
<svg xmlns="http://www.w3.org/2000/svg" xmlns:xlink="http://www.w3.org/1999/xlink" width="256pt" height="256pt" viewBox="0 0 256 256" version="1.1">
<g id="surface1">
<path style=" stroke:none;fill-rule:nonzero;fill:rgb(0%,0%,0%);fill-opacity:1;" d="M 218.550781 37.453125 C 168.605469 -12.480469 87.386719 -12.480469 37.441406 37.453125 C -12.480469 87.386719 -12.480469 168.628906 37.441406 218.5625 C 62.414062 243.523438 95.207031 255.996094 128 255.996094 C 160.796875 255.996094 193.578125 243.523438 218.550781 218.5625 C 268.484375 168.628906 268.484375 87.386719 218.550781 37.453125 Z M 180.816406 165.734375 C 184.988281 169.910156 184.988281 176.652344 180.816406 180.824219 C 178.734375 182.90625 176.003906 183.953125 173.269531 183.953125 C 170.539062 183.953125 167.804688 182.90625 165.726562 180.824219 L 128 143.089844 L 90.289062 180.816406 C 88.195312 182.894531 85.464844 183.941406 82.742188 183.941406 C 80.011719 183.941406 77.277344 182.894531 75.195312 180.816406 C 71.023438 176.640625 71.023438 169.886719 75.195312 165.726562 L 112.910156 128 L 75.1875 90.277344 C 71.015625 86.105469 71.015625 79.347656 75.1875 75.1875 C 79.347656 71.015625 86.105469 71.015625 90.277344 75.1875 L 128 112.910156 L 165.726562 75.1875 C 169.898438 71.015625 176.640625 71.015625 180.8125 75.1875 C 184.988281 79.347656 184.988281 86.105469 180.8125 90.277344 L 143.089844 128 Z M 180.816406 165.734375 "/>
</g>
</svg>
