<?xml version="1.0" encoding="UTF-8"?>
<svg xmlns="http://www.w3.org/2000/svg" xmlns:xlink="http://www.w3.org/1999/xlink" width="48pt" height="18pt" viewBox="0 0 48 18" version="1.1">
<g id="surface1">
<path style=" stroke:none;fill-rule:nonzero;fill:rgb(95.686275%,40.392157%,32.156863%);fill-opacity:1;" d="M 4.023438 0 L 4.023438 7.503906 C 4.730469 6.980469 5.394531 6.585938 6.015625 6.324219 C 6.632812 6.0625 7.214844 5.929688 7.753906 5.929688 C 8.925781 5.929688 9.902344 6.449219 10.679688 7.488281 C 11.460938 8.527344 11.847656 9.84375 11.847656 11.445312 C 11.847656 13.289062 11.332031 14.792969 10.304688 15.964844 C 9.277344 17.136719 7.957031 17.722656 6.335938 17.722656 C 5.925781 17.722656 5.519531 17.652344 5.121094 17.515625 C 4.722656 17.378906 4.359375 17.175781 4.023438 16.910156 L 1.097656 17.773438 L 1.097656 4.398438 C 1.097656 3.710938 1.011719 3.109375 0.84375 2.59375 C 0.679688 2.078125 0.394531 1.535156 0 0.96875 Z M 4.023438 16.109375 C 4.3125 16.207031 4.585938 16.277344 4.851562 16.332031 C 5.117188 16.386719 5.363281 16.410156 5.582031 16.410156 C 6.566406 16.410156 7.359375 16.007812 7.964844 15.195312 C 8.570312 14.382812 8.867188 13.296875 8.867188 11.941406 C 8.867188 10.59375 8.566406 9.53125 7.964844 8.761719 C 7.359375 7.988281 6.539062 7.601562 5.488281 7.601562 C 5.316406 7.601562 5.121094 7.613281 4.902344 7.636719 C 4.683594 7.660156 4.390625 7.707031 4.027344 7.773438 L 4.027344 16.109375 Z M 4.023438 16.109375 "/>
<path style=" stroke:none;fill-rule:nonzero;fill:rgb(95.686275%,40.392157%,32.156863%);fill-opacity:1;" d="M 23.039062 11.347656 L 15.871094 11.347656 L 15.871094 11.539062 C 15.871094 13.058594 16.261719 14.210938 17.046875 15 C 17.832031 15.789062 18.976562 16.179688 20.480469 16.179688 C 20.8125 16.179688 21.195312 16.15625 21.625 16.113281 C 22.058594 16.070312 22.554688 16.003906 23.121094 15.914062 C 22.421875 16.570312 21.675781 17.0625 20.878906 17.402344 C 20.078125 17.734375 19.242188 17.90625 18.359375 17.90625 C 16.691406 17.90625 15.359375 17.375 14.363281 16.316406 C 13.367188 15.261719 12.871094 13.839844 12.871094 12.0625 C 12.871094 10.261719 13.390625 8.785156 14.433594 7.644531 C 15.480469 6.503906 16.828125 5.929688 18.476562 5.929688 C 19.886719 5.929688 21 6.402344 21.816406 7.347656 C 22.628906 8.292969 23.035156 9.585938 23.035156 11.226562 L 23.035156 11.347656 Z M 19.917969 10.300781 C 19.917969 9.230469 19.753906 8.394531 19.433594 7.804688 C 19.113281 7.214844 18.660156 6.921875 18.070312 6.921875 C 17.375 6.921875 16.835938 7.257812 16.464844 7.933594 C 16.089844 8.605469 15.894531 9.59375 15.882812 10.898438 Z M 19.917969 10.300781 "/>
<path style=" stroke:none;fill-rule:nonzero;fill:rgb(95.686275%,40.392157%,32.156863%);fill-opacity:1;" d="M 27.921875 0 L 27.921875 14 C 27.921875 14.824219 27.996094 15.492188 28.140625 16.007812 C 28.289062 16.519531 28.515625 17.042969 28.828125 17.578125 L 24.097656 17.578125 C 24.40625 17.027344 24.632812 16.496094 24.78125 15.972656 C 24.929688 15.449219 25.003906 14.792969 25.003906 14 L 25.003906 4.398438 C 25.003906 3.710938 24.917969 3.109375 24.746094 2.59375 C 24.574219 2.078125 24.289062 1.535156 23.894531 0.96875 Z M 27.921875 0 "/>
<path style=" stroke:none;fill-rule:nonzero;fill:rgb(95.686275%,40.392157%,32.156863%);fill-opacity:1;" d="M 34.132812 0 L 34.132812 14 C 34.132812 14.824219 34.207031 15.492188 34.355469 16.007812 C 34.503906 16.519531 34.730469 17.042969 35.039062 17.578125 L 30.316406 17.578125 C 30.625 17.027344 30.851562 16.496094 31 15.972656 C 31.148438 15.449219 31.222656 14.792969 31.222656 14 L 31.222656 4.398438 C 31.222656 3.710938 31.132812 3.109375 30.964844 2.59375 C 30.789062 2.078125 30.507812 1.535156 30.109375 0.96875 Z M 34.132812 0 "/>
<path style=" stroke:none;fill-rule:nonzero;fill:rgb(95.686275%,40.392157%,32.156863%);fill-opacity:1;" d="M 36.371094 11.9375 C 36.371094 10.121094 36.914062 8.664062 38 7.570312 C 39.085938 6.472656 40.535156 5.925781 42.347656 5.925781 C 44.085938 5.925781 45.460938 6.46875 46.476562 7.542969 C 47.492188 8.625 48 10.082031 48 11.914062 C 48 13.761719 47.460938 15.242188 46.382812 16.34375 C 45.300781 17.449219 43.855469 18 42.035156 18 C 40.296875 18 38.917969 17.453125 37.898438 16.363281 C 36.882812 15.273438 36.371094 13.796875 36.371094 11.9375 Z M 42.15625 6.851562 C 41.363281 6.851562 40.738281 7.296875 40.28125 8.183594 C 39.824219 9.070312 39.597656 10.300781 39.597656 11.867188 C 39.597656 13.472656 39.832031 14.742188 40.300781 15.667969 C 40.773438 16.59375 41.40625 17.054688 42.207031 17.054688 C 43.023438 17.054688 43.664062 16.609375 44.125 15.714844 C 44.582031 14.820312 44.816406 13.566406 44.816406 11.9375 C 44.816406 10.332031 44.582031 9.082031 44.109375 8.1875 C 43.640625 7.296875 42.992188 6.851562 42.15625 6.851562 Z M 42.15625 6.851562 "/>
</g>
</svg>
