<?xml version="1.0" encoding="UTF-8"?>
<svg xmlns="http://www.w3.org/2000/svg" xmlns:xlink="http://www.w3.org/1999/xlink" width="9pt" height="9pt" viewBox="0 0 9 9" version="1.1">
<g id="surface1">
<path style=" stroke:none;fill-rule:nonzero;fill:rgb(35.294118%,39.215686%,50.980392%);fill-opacity:1;" d="M 7.125 0 L 1.875 0 C 0.839844 0 0 0.839844 0 1.875 L 0 7.125 C 0 8.160156 0.839844 9 1.875 9 L 7.125 9 C 8.160156 9 9 8.160156 9 7.125 L 9 1.875 C 9 0.839844 8.160156 0 7.125 0 Z M 3 7.125 L 1.875 7.125 L 1.875 3 L 3 3 Z M 2.4375 2.523438 C 2.074219 2.523438 1.78125 2.226562 1.78125 1.863281 C 1.78125 1.496094 2.074219 1.203125 2.4375 1.203125 C 2.800781 1.203125 3.09375 1.496094 3.09375 1.863281 C 3.09375 2.226562 2.800781 2.523438 2.4375 2.523438 Z M 7.5 7.125 L 6.375 7.125 L 6.375 5.023438 C 6.375 3.761719 4.875 3.855469 4.875 5.023438 L 4.875 7.125 L 3.75 7.125 L 3.75 3 L 4.875 3 L 4.875 3.660156 C 5.398438 2.691406 7.5 2.621094 7.5 4.589844 Z M 7.5 7.125 "/>
</g>
</svg>
