<?xml version="1.0" encoding="UTF-8"?>
<svg xmlns="http://www.w3.org/2000/svg" xmlns:xlink="http://www.w3.org/1999/xlink" width="13pt" height="9pt" viewBox="0 0 13 9" version="1.1">
<g id="surface1">
<path style=" stroke:none;fill-rule:nonzero;fill:rgb(35.294118%,39.215686%,50.980392%);fill-opacity:1;" d="M 6.789062 8.988281 L 4.121094 8.941406 C 3.257812 8.921875 2.390625 8.957031 1.546875 8.78125 C 0.257812 8.515625 0.164062 7.226562 0.0703125 6.144531 C -0.0625 4.621094 -0.0117188 3.070312 0.238281 1.558594 C 0.378906 0.714844 0.929688 0.207031 1.78125 0.152344 C 4.660156 -0.046875 7.558594 -0.0234375 10.433594 0.0703125 C 10.738281 0.078125 11.042969 0.125 11.339844 0.179688 C 12.816406 0.4375 12.855469 1.898438 12.949219 3.132812 C 13.046875 4.375 13.003906 5.625 12.824219 6.863281 C 12.675781 7.886719 12.394531 8.746094 11.214844 8.828125 C 9.734375 8.933594 8.285156 9.023438 6.800781 8.996094 C 6.800781 8.988281 6.792969 8.988281 6.789062 8.988281 Z M 5.21875 6.398438 C 6.335938 5.757812 7.429688 5.125 8.539062 4.488281 C 7.421875 3.847656 6.328125 3.214844 5.21875 2.578125 Z M 5.21875 6.398438 "/>
</g>
</svg>
