<?xml version="1.0" encoding="UTF-8"?>
<svg xmlns="http://www.w3.org/2000/svg" xmlns:xlink="http://www.w3.org/1999/xlink" width="9pt" height="9pt" viewBox="0 0 9 9" version="1.1">
<g id="surface1">
<path style=" stroke:none;fill-rule:nonzero;fill:rgb(35.294118%,39.215686%,50.980392%);fill-opacity:1;" d="M 3 4.5 C 3 3.671875 3.671875 3 4.5 3 C 5.328125 3 6 3.671875 6 4.5 C 6 5.328125 5.328125 6 4.5 6 C 3.671875 6 3 5.328125 3 4.5 Z M 2.1875 4.5 C 2.1875 5.777344 3.222656 6.8125 4.5 6.8125 C 5.777344 6.8125 6.8125 5.777344 6.8125 4.5 C 6.8125 3.222656 5.777344 2.1875 4.5 2.1875 C 3.222656 2.1875 2.1875 3.222656 2.1875 4.5 Z M 6.363281 2.097656 C 6.363281 2.394531 6.605469 2.636719 6.902344 2.636719 C 7.199219 2.636719 7.441406 2.394531 7.441406 2.097656 C 7.441406 1.800781 7.199219 1.558594 6.902344 1.558594 C 6.605469 1.558594 6.363281 1.800781 6.363281 2.097656 Z M 2.683594 8.164062 C 2.242188 8.144531 2.003906 8.070312 1.847656 8.007812 C 1.636719 7.925781 1.488281 7.828125 1.328125 7.671875 C 1.171875 7.515625 1.074219 7.363281 0.992188 7.15625 C 0.929688 6.996094 0.855469 6.757812 0.835938 6.320312 C 0.816406 5.84375 0.8125 5.703125 0.8125 4.5 C 0.8125 3.296875 0.816406 3.15625 0.835938 2.679688 C 0.855469 2.242188 0.929688 2.003906 0.992188 1.847656 C 1.074219 1.636719 1.171875 1.484375 1.328125 1.328125 C 1.484375 1.171875 1.636719 1.074219 1.847656 0.992188 C 2.003906 0.929688 2.242188 0.855469 2.683594 0.835938 C 3.15625 0.816406 3.296875 0.808594 4.5 0.808594 C 5.703125 0.808594 5.84375 0.816406 6.320312 0.835938 C 6.757812 0.855469 6.996094 0.929688 7.15625 0.992188 C 7.363281 1.074219 7.515625 1.171875 7.671875 1.328125 C 7.828125 1.484375 7.925781 1.636719 8.007812 1.847656 C 8.070312 2.003906 8.144531 2.242188 8.164062 2.679688 C 8.183594 3.15625 8.191406 3.296875 8.191406 4.5 C 8.191406 5.703125 8.183594 5.84375 8.164062 6.320312 C 8.144531 6.757812 8.070312 6.996094 8.007812 7.15625 C 7.925781 7.363281 7.828125 7.515625 7.671875 7.671875 C 7.515625 7.828125 7.363281 7.925781 7.15625 8.007812 C 6.996094 8.070312 6.757812 8.144531 6.320312 8.164062 C 5.84375 8.183594 5.703125 8.1875 4.5 8.1875 C 3.296875 8.1875 3.15625 8.183594 2.683594 8.164062 Z M 2.644531 0.0273438 C 2.164062 0.0507812 1.839844 0.125 1.550781 0.234375 C 1.257812 0.351562 1.003906 0.503906 0.753906 0.753906 C 0.503906 1.003906 0.351562 1.257812 0.234375 1.550781 C 0.125 1.839844 0.0507812 2.164062 0.0273438 2.644531 C 0.00390625 3.125 0 3.277344 0 4.5 C 0 5.722656 0.00390625 5.875 0.0273438 6.355469 C 0.0507812 6.835938 0.125 7.160156 0.234375 7.449219 C 0.351562 7.742188 0.503906 7.996094 0.753906 8.246094 C 1.003906 8.496094 1.257812 8.648438 1.550781 8.761719 C 1.839844 8.875 2.164062 8.949219 2.644531 8.972656 C 3.125 8.996094 3.277344 9 4.5 9 C 5.722656 9 5.875 8.996094 6.355469 8.972656 C 6.835938 8.949219 7.160156 8.875 7.449219 8.761719 C 7.742188 8.648438 7.996094 8.496094 8.246094 8.246094 C 8.496094 7.996094 8.648438 7.742188 8.765625 7.449219 C 8.875 7.160156 8.953125 6.835938 8.972656 6.355469 C 8.996094 5.875 9 5.722656 9 4.5 C 9 3.277344 8.996094 3.125 8.972656 2.644531 C 8.953125 2.164062 8.875 1.839844 8.765625 1.550781 C 8.648438 1.257812 8.496094 1.003906 8.246094 0.753906 C 7.996094 0.503906 7.742188 0.351562 7.449219 0.234375 C 7.160156 0.125 6.835938 0.046875 6.355469 0.0273438 C 5.875 0.00390625 5.722656 0 4.5 0 C 3.277344 0 3.125 0.00390625 2.644531 0.0273438 Z M 2.644531 0.0273438 "/>
</g>
</svg>
