<?xml version="1.0" encoding="UTF-8"?>
<svg xmlns="http://www.w3.org/2000/svg" xmlns:xlink="http://www.w3.org/1999/xlink" width="16pt" height="6pt" viewBox="0 0 16 6" version="1.1">
<g id="surface1">
<path style=" stroke:none;fill-rule:nonzero;fill:rgb(100%,100%,100%);fill-opacity:1;" d="M 15.917969 3.648438 C 15.863281 3.316406 15.863281 2.863281 15.730469 2.546875 C 15.640625 2.347656 15.414062 2.285156 15.261719 2.179688 C 15.023438 2.035156 14.777344 1.867188 14.539062 1.726562 C 13.636719 1.171875 12.734375 0.621094 11.835938 0.0664062 C 11.925781 0.128906 11.9375 0.660156 11.953125 0.761719 C 11.972656 0.863281 11.980469 1.390625 12.074219 1.457031 C 12.527344 1.746094 13 2.003906 13.453125 2.292969 C 9.007812 2.378906 4.535156 2.46875 0.09375 2.582031 C 0.144531 2.574219 0.25 3.957031 0.328125 3.945312 C 4.371094 3.851562 8.4375 3.753906 12.511719 3.683594 C 12.003906 3.851562 11.476562 4.082031 11.011719 4.347656 C 10.941406 4.390625 11.058594 4.765625 11.140625 5.09375 C 11.175781 5.300781 11.214844 5.507812 11.25 5.710938 C 11.320312 5.671875 11.421875 5.628906 11.496094 5.585938 C 11.496094 5.585938 11.523438 5.582031 11.515625 5.558594 C 12.304688 5.125 13.175781 4.886719 14.050781 4.648438 C 14.535156 4.507812 15.027344 4.394531 15.503906 4.203125 C 15.78125 4.097656 15.90625 4.050781 15.929688 3.859375 C 15.933594 3.886719 15.960938 3.882812 15.964844 3.90625 C 15.953125 3.855469 15.945312 3.804688 15.9375 3.753906 C 15.933594 3.726562 15.921875 3.675781 15.917969 3.648438 Z M 14.6875 3.050781 C 14.660156 3.054688 14.660156 3.054688 14.636719 3.058594 C 14.628906 3.035156 14.625 3.007812 14.625 3.007812 C 14.625 3.007812 14.65625 3.03125 14.6875 3.050781 Z M 14.6875 3.050781 "/>
</g>
</svg>
