<svg width="30" height="12" viewBox="0 0 30 12" fill="none" xmlns="http://www.w3.org/2000/svg">
<path d="M20.8984 9.96059C20.741 9.35662 20.5187 8.6676 20.6569 8.59341C21.5512 8.09584 22.4914 7.68586 23.4645 7.36917C15.8264 7.5026 8.19543 7.68251 0.614263 7.85667C0.468483 7.88242 0.276023 5.36692 0.172999 5.35871C8.50504 5.15145 16.8945 4.98178 25.2338 4.82099C24.3832 4.28969 23.493 3.81616 22.6436 3.28566C22.4728 3.16957 22.4522 2.20216 22.4188 2.01304C22.3854 1.82392 22.3647 0.855525 22.193 0.740596L27.2692 3.77987C27.7215 4.04024 28.1762 4.34894 28.6266 4.60966C28.9124 4.80193 29.3357 4.92116 29.501 5.282C29.6931 5.94248 29.8131 6.62182 29.859 7.30814L29.9421 7.77897C29.9338 7.73169 29.8855 7.74022 29.8765 7.689C29.8363 8.03637 29.6013 8.12663 29.0792 8.31637C28.1836 8.66858 27.2631 8.87995 26.3509 9.13859C24.7086 9.50574 23.115 10.0644 21.6029 10.8031C21.6041 10.8095 21.6041 10.816 21.6028 10.8224C21.6014 10.8287 21.5988 10.8347 21.5951 10.84C21.5914 10.8453 21.5867 10.8498 21.5812 10.8532C21.5757 10.8567 21.5695 10.8589 21.5631 10.8599C21.4247 10.9331 21.2387 11.0188 21.0955 11.0878L20.8984 9.96059Z" fill="#007189"/>
</svg>
