<?xml version="1.0" encoding="UTF-8"?>
<svg xmlns="http://www.w3.org/2000/svg" xmlns:xlink="http://www.w3.org/1999/xlink" width="15pt" height="6pt" viewBox="0 0 15 6" version="1.1">
<g id="surface1">
<path style=" stroke:none;fill-rule:nonzero;fill:rgb(0%,44.313725%,53.72549%);fill-opacity:1;" d="M 10.449219 4.980469 C 10.371094 4.679688 10.257812 4.332031 10.328125 4.296875 C 10.777344 4.046875 11.246094 3.84375 11.730469 3.683594 C 7.914062 3.75 4.097656 3.839844 0.308594 3.929688 C 0.234375 3.941406 0.136719 2.683594 0.0859375 2.679688 C 4.253906 2.574219 8.445312 2.492188 12.617188 2.410156 C 12.191406 2.144531 11.746094 1.90625 11.320312 1.644531 C 11.238281 1.585938 11.226562 1.101562 11.210938 1.007812 C 11.191406 0.910156 11.183594 0.429688 11.097656 0.371094 L 13.632812 1.890625 C 13.859375 2.019531 14.089844 2.175781 14.3125 2.304688 C 14.457031 2.402344 14.667969 2.460938 14.75 2.640625 C 14.847656 2.972656 14.90625 3.3125 14.929688 3.652344 L 14.972656 3.890625 C 14.96875 3.867188 14.941406 3.871094 14.9375 3.84375 C 14.917969 4.019531 14.800781 4.0625 14.539062 4.15625 C 14.09375 4.335938 13.632812 4.441406 13.175781 4.570312 C 12.355469 4.753906 11.558594 5.03125 10.800781 5.402344 C 10.800781 5.40625 10.800781 5.40625 10.800781 5.410156 C 10.800781 5.414062 10.800781 5.417969 10.796875 5.421875 C 10.796875 5.421875 10.792969 5.425781 10.789062 5.425781 C 10.789062 5.429688 10.785156 5.429688 10.78125 5.429688 C 10.710938 5.464844 10.621094 5.507812 10.546875 5.542969 Z M 10.449219 4.980469 "/>
</g>
</svg>
