<?xml version="1.0" encoding="UTF-8"?>
<svg xmlns="http://www.w3.org/2000/svg" xmlns:xlink="http://www.w3.org/1999/xlink" width="16pt" height="6pt" viewBox="0 0 16 6" version="1.1">
<g id="surface1">
<path style=" stroke:none;fill-rule:nonzero;fill:rgb(0%,44.313725%,53.72549%);fill-opacity:1;" d="M 11.144531 5.097656 C 11.0625 4.765625 10.941406 4.390625 11.015625 4.351562 C 11.492188 4.078125 11.996094 3.855469 12.515625 3.683594 C 8.441406 3.757812 4.371094 3.855469 0.328125 3.949219 C 0.25 3.964844 0.148438 2.589844 0.09375 2.585938 C 4.535156 2.472656 9.011719 2.382812 13.457031 2.292969 C 13.003906 2.003906 12.53125 1.746094 12.078125 1.457031 C 11.984375 1.394531 11.972656 0.863281 11.957031 0.761719 C 11.9375 0.660156 11.925781 0.128906 11.835938 0.0664062 L 14.542969 1.726562 C 14.785156 1.867188 15.027344 2.035156 15.265625 2.179688 C 15.417969 2.28125 15.644531 2.347656 15.734375 2.542969 C 15.835938 2.90625 15.898438 3.277344 15.925781 3.648438 L 15.96875 3.90625 C 15.964844 3.882812 15.9375 3.886719 15.933594 3.859375 C 15.914062 4.046875 15.785156 4.097656 15.507812 4.199219 C 15.03125 4.390625 14.539062 4.507812 14.054688 4.648438 C 13.175781 4.847656 12.328125 5.152344 11.519531 5.554688 C 11.523438 5.558594 11.523438 5.5625 11.519531 5.566406 C 11.519531 5.570312 11.519531 5.574219 11.515625 5.578125 C 11.515625 5.578125 11.511719 5.582031 11.507812 5.582031 C 11.507812 5.585938 11.503906 5.585938 11.5 5.585938 C 11.425781 5.628906 11.328125 5.675781 11.25 5.710938 Z M 11.144531 5.097656 "/>
</g>
</svg>
