<svg width="27" height="10" viewBox="0 0 27 10" fill="none" xmlns="http://www.w3.org/2000/svg">
<path d="M18.742 8.67809C18.6002 8.13432 18.4002 7.5135 18.5247 7.44783C19.326 7.0004 20.1688 6.63177 21.0412 6.34711C14.1923 6.46303 7.35099 6.62228 0.553029 6.77389C0.421039 6.7972 0.243452 4.50964 0.155787 4.52513C7.62588 4.34317 15.1476 4.19474 22.622 4.05467C21.8606 3.57973 21.0615 3.15005 20.2986 2.67232C20.145 2.56742 20.1262 1.69619 20.0963 1.52677C20.0663 1.35735 20.0517 0.486411 19.897 0.381677L24.444 3.12136C24.8468 3.35491 25.2575 3.63279 25.6597 3.86849C25.9168 4.04147 26.2976 4.14993 26.4453 4.47427C26.6179 5.06865 26.7259 5.67994 26.7673 6.2975L26.8423 6.72204C26.8348 6.67968 26.7915 6.68734 26.784 6.64498C26.7486 6.95597 26.5367 7.0391 26.0708 7.20773C25.2686 7.49461 24.4523 7.74052 23.6251 7.9445C22.1523 8.27433 20.7235 8.77662 19.3684 9.44098C19.3692 9.44656 19.369 9.45226 19.3676 9.45775C19.3663 9.46323 19.3639 9.4684 19.3605 9.47295C19.3572 9.47751 19.353 9.48136 19.3481 9.48428C19.3433 9.48721 19.3379 9.48915 19.3323 9.49C19.2088 9.5555 19.041 9.62883 18.9166 9.69548L18.742 8.67809Z" fill="#F4943F"/>
</svg>
