<?xml version="1.0" encoding="UTF-8"?>
<svg xmlns="http://www.w3.org/2000/svg" xmlns:xlink="http://www.w3.org/1999/xlink" width="13pt" height="5pt" viewBox="0 0 13 5" version="1.1">
<g id="surface1">
<path style=" stroke:none;fill-rule:nonzero;fill:rgb(43.137255%,69.019608%,88.235294%);fill-opacity:1;" d="M 9.023438 4.152344 C 8.957031 3.878906 8.859375 3.570312 8.917969 3.535156 C 9.304688 3.3125 9.710938 3.128906 10.132812 2.984375 C 6.832031 3.042969 3.539062 3.125 0.265625 3.199219 C 0.203125 3.210938 0.117188 2.066406 0.0742188 2.074219 C 3.671875 1.984375 7.292969 1.910156 10.890625 1.839844 C 10.527344 1.601562 10.140625 1.386719 9.773438 1.148438 C 9.699219 1.097656 9.691406 0.660156 9.675781 0.574219 C 9.660156 0.492188 9.65625 0.0546875 9.578125 0.00390625 L 11.769531 1.375 C 11.964844 1.488281 12.160156 1.628906 12.355469 1.746094 C 12.476562 1.832031 12.660156 1.886719 12.734375 2.050781 C 12.816406 2.347656 12.867188 2.652344 12.886719 2.960938 L 12.925781 3.171875 C 12.921875 3.152344 12.898438 3.15625 12.894531 3.136719 C 12.878906 3.289062 12.777344 3.332031 12.550781 3.417969 C 12.167969 3.558594 11.773438 3.683594 11.375 3.785156 C 10.664062 3.949219 9.976562 4.199219 9.324219 4.53125 C 9.324219 4.535156 9.324219 4.539062 9.324219 4.542969 C 9.324219 4.542969 9.324219 4.546875 9.320312 4.550781 C 9.320312 4.550781 9.316406 4.554688 9.316406 4.554688 C 9.3125 4.554688 9.3125 4.558594 9.308594 4.558594 C 9.25 4.589844 9.167969 4.625 9.109375 4.660156 Z M 9.023438 4.152344 "/>
</g>
</svg>
