<?xml version="1.0" encoding="UTF-8"?>
<svg xmlns="http://www.w3.org/2000/svg" xmlns:xlink="http://www.w3.org/1999/xlink" width="13pt" height="5pt" viewBox="0 0 13 5" version="1.1">
<g id="surface1">
<path style=" stroke:none;fill-rule:nonzero;fill:rgb(95.686275%,58.039216%,24.705882%);fill-opacity:1;" d="M 9.023438 4.339844 C 8.957031 4.066406 8.859375 3.757812 8.917969 3.722656 C 9.304688 3.5 9.710938 3.316406 10.132812 3.171875 C 6.832031 3.230469 3.539062 3.3125 0.265625 3.386719 C 0.203125 3.398438 0.117188 2.253906 0.0742188 2.261719 C 3.671875 2.171875 7.292969 2.097656 10.890625 2.027344 C 10.527344 1.789062 10.140625 1.574219 9.773438 1.335938 C 9.699219 1.285156 9.691406 0.847656 9.675781 0.761719 C 9.660156 0.679688 9.65625 0.242188 9.578125 0.191406 L 11.769531 1.5625 C 11.964844 1.675781 12.160156 1.816406 12.355469 1.933594 C 12.476562 2.019531 12.660156 2.074219 12.734375 2.238281 C 12.816406 2.535156 12.867188 2.839844 12.886719 3.148438 L 12.925781 3.359375 C 12.921875 3.339844 12.898438 3.34375 12.894531 3.324219 C 12.878906 3.476562 12.777344 3.519531 12.550781 3.605469 C 12.167969 3.746094 11.773438 3.871094 11.375 3.972656 C 10.664062 4.136719 9.976562 4.386719 9.324219 4.71875 C 9.324219 4.722656 9.324219 4.726562 9.324219 4.730469 C 9.324219 4.730469 9.324219 4.734375 9.320312 4.738281 C 9.320312 4.738281 9.316406 4.742188 9.316406 4.742188 C 9.3125 4.742188 9.3125 4.746094 9.308594 4.746094 C 9.25 4.777344 9.167969 4.8125 9.109375 4.847656 Z M 9.023438 4.339844 "/>
</g>
</svg>
